<svg version="1.1" id="Layer_1" xmlns="http://www.w3.org/2000/svg" xmlns:xlink="http://www.w3.org/1999/xlink" x="0px" y="0px"
	 width="100%" viewBox="0 0 1536 1024" enable-background="new 0 0 1536 1024" xml:space="preserve">
<path fill="#000000" opacity="1.000000" stroke="none" 
	d="
M821.000000,1025.000000 
	C547.333313,1025.000000 274.166656,1025.000000 1.000000,1025.000000 
	C1.000000,683.666687 1.000000,342.333344 1.000000,1.000000 
	C513.000000,1.000000 1025.000000,1.000000 1537.000000,1.000000 
	C1537.000000,342.333344 1537.000000,683.666687 1537.000000,1025.000000 
	C1298.500000,1025.000000 1060.000000,1025.000000 821.000000,1025.000000 
M989.754211,257.795837 
	C989.468445,257.591217 989.244385,257.636536 988.343567,257.934875 
	C986.883118,259.006195 985.422607,260.077515 983.493469,261.621918 
	C979.034180,264.343140 974.574951,267.064362 969.383118,269.957855 
	C965.848022,272.096832 962.546387,274.891205 958.733215,276.249908 
	C947.969727,280.085205 936.964722,277.849426 926.020325,276.709991 
	C924.482117,276.549866 922.594421,277.316132 921.249023,278.219971 
	C918.033447,280.380005 915.044922,282.878143 911.193359,284.626770 
	C910.565063,284.443268 909.936829,284.259796 909.463684,284.041595 
	C909.463684,284.041595 909.408508,284.096161 908.442505,283.879395 
	C906.137695,283.916046 903.832947,283.952698 901.629822,283.908081 
	C901.629822,283.908081 901.628357,283.944305 901.200317,284.565338 
	C891.126587,290.741333 889.413025,298.653259 895.894775,308.212494 
	C896.560669,309.194519 896.752991,311.112946 896.257812,312.173035 
	C890.508240,324.480896 884.721008,336.777039 878.550598,348.875732 
	C877.678345,350.585876 874.712891,351.228424 872.716248,352.365082 
	C872.515320,351.914612 872.314453,351.464111 872.113525,351.013611 
	C872.572754,351.013611 873.031982,351.013611 872.438599,351.686401 
	C860.268738,355.741455 857.950989,362.016602 864.575073,372.922974 
	C864.822144,373.329712 864.870605,373.857147 864.518860,374.135590 
	C864.355164,374.120239 864.191467,374.104919 864.027771,374.089569 
	C864.120117,374.228088 864.317139,374.393555 864.289429,374.501099 
	C863.687988,376.834045 863.368408,379.298706 862.392029,381.466675 
	C853.744629,400.667664 844.979919,419.815735 835.718384,439.559448 
	C830.747009,450.648071 825.775574,461.736694 820.258484,473.206543 
	C815.713684,483.126251 811.096313,493.013611 806.649536,502.977051 
	C803.696899,509.592590 800.988281,516.317078 797.738281,523.529846 
	C793.523743,532.722534 789.309265,541.915161 784.330078,551.127625 
	C783.361511,549.925537 782.266296,548.803162 781.450073,547.505310 
	C779.626587,544.605896 777.942261,541.619019 776.106567,537.957886 
	C773.553772,532.415039 771.101074,526.823425 768.426208,521.340149 
	C763.666016,511.582397 758.771362,501.890228 753.777771,491.445648 
	C752.322571,488.541656 750.867371,485.637665 749.271057,482.010284 
	C747.166748,477.556915 745.062500,473.103516 743.124573,468.717377 
	C743.124573,468.717377 742.974365,468.711426 742.786133,467.938629 
	C736.291443,454.568848 729.796753,441.199066 723.169556,427.102997 
	C721.238647,423.059540 719.411743,418.962036 717.347351,414.987885 
	C715.308594,411.063110 713.029785,407.263000 711.076843,403.051605 
	C710.212158,401.228943 709.327209,399.415527 708.485901,397.582123 
	C700.337646,379.825836 692.162170,362.081879 684.073792,344.298340 
	C681.485474,338.607635 677.357971,336.376831 671.021790,336.439270 
	C646.527039,336.680603 622.028381,336.514404 597.531128,336.512024 
	C587.198792,336.511047 576.864746,336.432526 566.534912,336.601135 
	C561.513916,336.683075 559.664734,339.498047 561.143555,344.224457 
	C561.539001,345.488403 562.125488,346.703888 562.724121,347.891296 
	C572.091980,366.473450 581.540405,385.015289 590.843567,403.629761 
	C610.870239,443.700684 630.796265,483.821869 650.819641,523.894470 
	C660.487183,543.241943 670.281494,562.526062 680.094727,582.606262 
	C686.712830,595.598145 693.330872,608.589966 699.745850,622.268127 
	C714.417175,650.209167 729.088501,678.150208 744.019409,706.749695 
	C749.004456,715.024841 753.887695,723.396545 763.855286,727.749695 
	C764.221313,727.869629 764.587280,727.989502 765.502380,728.557556 
	C768.013062,729.306274 770.523804,730.054932 773.694092,731.286926 
	C779.251709,731.066650 784.942017,731.501465 790.323425,730.411377 
	C794.367065,729.592407 798.014038,726.815002 802.388123,724.526978 
	C804.508118,722.478943 806.628113,720.430969 809.251160,718.460876 
	C809.493408,717.952148 809.735718,717.443481 810.503540,716.408447 
	C814.164673,710.268616 818.263550,704.344238 821.410583,697.951416 
	C834.505676,671.350220 847.313965,644.607849 860.373779,618.112976 
	C860.373779,618.112976 860.073303,618.082031 860.461792,617.400330 
	C861.307556,615.276184 862.153259,613.152039 863.475586,610.592285 
	C868.544800,599.984558 873.614014,589.376892 879.107727,578.272827 
	C882.907654,570.357056 886.790405,562.479797 890.490173,554.517456 
	C898.038879,538.271484 905.489014,521.979553 913.559448,505.106567 
	C914.540894,502.933014 915.522339,500.759460 916.935303,498.181091 
	C917.009521,497.801361 917.083679,497.421631 917.372498,496.835602 
	C917.372498,496.835602 917.413879,496.540833 917.865234,496.175964 
	C917.942566,495.806519 918.019897,495.437042 918.479004,494.623077 
	C918.761536,493.900757 919.044067,493.178436 919.855774,492.017426 
	C932.356934,465.126312 944.858154,438.235168 957.868225,410.884583 
	C962.595581,400.915009 967.322998,390.945435 972.542786,380.529602 
	C974.399475,377.056793 976.256165,373.583984 978.760925,369.866974 
	C983.384583,367.190735 983.006775,362.416107 983.798828,358.077209 
	C985.474060,348.899994 985.897156,339.621185 997.944702,336.198761 
	C1005.127197,334.158417 1006.272400,326.885254 999.913879,322.538544 
	C997.674255,321.007599 993.852234,320.267242 991.321472,321.036652 
	C987.330688,322.249939 984.953369,325.977722 985.357300,330.378174 
	C985.778931,334.970215 984.184265,338.183929 980.913330,341.323639 
	C977.304016,344.788147 973.604492,346.773773 968.474976,346.190765 
	C966.616821,345.979614 964.627869,347.263275 962.694092,347.278381 
	C960.623596,347.294525 957.983948,347.290161 956.584900,346.114227 
	C953.047119,343.140717 950.140869,339.429138 946.835266,336.161346 
	C944.659546,334.010468 942.229492,332.116852 939.913330,330.108032 
	C939.520813,330.551483 939.128235,330.994904 938.735718,331.438354 
	C942.668091,335.421234 946.442383,339.577942 950.576721,343.338806 
	C954.845032,347.221497 957.721313,351.147766 953.098755,357.227448 
	C949.626526,357.982788 946.154358,358.738129 941.808838,359.360138 
	C939.830566,359.238495 937.830505,359.261810 935.877930,358.968781 
	C929.302917,357.982178 922.213867,359.661285 916.454651,354.399139 
	C916.327637,348.672638 916.200623,342.946167 915.925720,336.323700 
	C915.096313,329.929901 914.056824,323.551697 913.580444,317.131714 
	C913.456116,315.456696 915.085449,313.651581 916.526367,311.742279 
	C917.223022,311.253021 917.919678,310.763794 919.131226,310.241302 
	C919.296997,309.778137 919.462769,309.314972 919.866821,308.465485 
	C919.866821,308.465485 920.098083,308.074890 920.901184,307.883881 
	C923.371521,308.544006 925.906250,309.028534 928.297363,309.904846 
	C931.992188,311.259033 935.588806,312.881134 939.391846,314.667023 
	C939.391846,314.667023 939.640076,314.873260 939.678894,315.480713 
	C942.659302,318.076599 943.384521,318.102264 945.318176,315.271240 
	C945.417236,315.120178 945.516357,314.969086 945.980713,315.057587 
	C945.903076,314.493469 945.825500,313.929382 945.727539,313.219788 
	C945.727539,313.219788 945.623840,313.115723 945.674622,312.635895 
	C945.590332,312.271759 945.361877,312.074158 944.685852,311.640991 
	C944.412537,311.448425 944.139221,311.255859 943.536438,310.606415 
	C940.486816,310.288849 937.359924,310.295959 934.402405,309.591766 
	C926.113708,307.618195 923.439392,304.796417 923.935852,298.197357 
	C922.626038,295.390259 921.647400,292.356689 919.922363,289.833466 
	C917.777283,286.695679 917.905823,284.090332 921.049988,282.280487 
	C923.347473,280.958008 926.120972,279.958435 928.738281,279.811462 
	C932.853394,279.580353 937.024597,280.089844 941.155396,280.467865 
	C945.457642,280.861603 950.164551,279.077667 953.925781,282.830444 
	C954.324158,283.227936 955.955872,282.929108 956.624512,282.429840 
	C961.615601,278.703033 966.508118,274.844269 972.219666,271.083679 
	C972.939026,270.742554 973.658447,270.401459 974.658081,270.526459 
	C975.247925,270.572388 976.024963,270.886353 976.399902,270.624512 
	C983.359070,265.765472 991.479675,265.775726 999.340027,265.716309 
	C1005.709229,265.668152 1012.073364,267.274567 1018.469299,267.678162 
	C1023.433960,267.991486 1027.773438,264.899780 1028.600586,261.257629 
	C1029.708252,256.380219 1027.426514,252.041763 1022.632324,249.910080 
	C1018.680237,248.152832 1013.522766,249.662445 1011.078369,254.075867 
	C1009.206116,257.456329 1006.598755,258.893829 1003.128662,259.036804 
	C999.167725,259.200073 995.191223,258.984802 991.136902,258.868835 
	C991.136902,258.868835 991.053528,258.802063 990.838501,258.391815 
	C990.600708,258.142395 990.316040,258.064758 989.896179,258.113251 
	C989.896179,258.113251 989.805298,258.073120 989.754211,257.795837 
z"/>
<path fill="#DAF39D" opacity="1.000000" stroke="none" 
	d="
M680.018433,581.838867 
	C670.281494,562.526062 660.487183,543.241943 650.819641,523.894470 
	C630.796265,483.821869 610.870239,443.700684 590.843567,403.629761 
	C581.540405,385.015289 572.091980,366.473450 562.724121,347.891296 
	C562.125488,346.703888 561.539001,345.488403 561.143555,344.224457 
	C559.664734,339.498047 561.513916,336.683075 566.534912,336.601135 
	C576.864746,336.432526 587.198792,336.511047 597.531128,336.512024 
	C622.028381,336.514404 646.527039,336.680603 671.021790,336.439270 
	C677.357971,336.376831 681.485474,338.607635 684.073792,344.298340 
	C692.162170,362.081879 700.337646,379.825836 708.485901,397.582123 
	C709.327209,399.415527 710.212158,401.228943 710.877197,403.145569 
	C704.963440,403.099854 705.945618,396.532013 701.844055,394.114288 
	C692.806335,400.312714 683.614502,406.479919 676.940857,415.626129 
	C674.199402,419.383331 671.695068,423.313812 668.943665,427.063232 
	C664.980347,432.464203 661.602478,432.072021 658.873352,426.056641 
	C658.445801,425.114319 657.717224,424.308624 657.127869,423.439758 
	C656.768860,423.599182 656.409851,423.758575 656.050842,423.917999 
	C658.233398,429.676056 660.415955,435.434113 662.824890,441.789429 
	C648.754700,443.696899 638.227173,451.825928 627.536743,459.712921 
	C625.588745,461.150085 624.872192,462.149811 626.141174,464.540558 
	C629.333557,470.554504 632.213257,476.734467 635.215820,482.849121 
	C643.346985,499.408020 651.434143,515.988770 659.633545,532.513794 
	C662.078430,537.441223 664.836487,542.213196 667.581299,547.405396 
	C672.211487,556.748779 676.711487,565.743042 681.141174,575.166016 
	C680.720093,577.676086 680.369263,579.757507 680.018433,581.838867 
z"/>
<path fill="#0BE8E3" opacity="1.000000" stroke="none" 
	d="
M878.683228,578.769226 
	C873.614014,589.376892 868.544800,599.984558 863.381165,610.437134 
	C862.881592,607.555847 863.400330,603.994385 861.861938,602.292786 
	C859.342957,599.506531 856.148010,601.276062 853.570496,603.604675 
	C848.955200,607.774231 844.031311,611.620178 839.598938,615.970764 
	C827.151794,628.188354 814.743530,640.453003 802.616028,652.985657 
	C796.628784,659.172974 791.270630,665.971802 785.673462,672.532715 
	C782.746338,675.963867 779.917847,679.479126 776.889648,682.645630 
	C774.175171,677.533630 771.615784,672.732300 769.007019,667.575195 
	C761.756958,652.139404 754.466797,637.101257 747.375977,621.969666 
	C735.959045,597.606079 724.724854,573.156799 713.299438,548.797180 
	C710.138977,542.058960 706.575073,535.510010 703.165527,528.502441 
	C702.830444,527.188599 702.613831,526.207031 702.209045,525.310303 
	C693.083191,505.095612 683.930481,484.892944 674.813721,464.674133 
	C674.400940,463.758575 674.278381,462.712189 674.020691,461.726715 
	C674.519470,461.455688 675.018188,461.184692 675.516968,460.913666 
	C677.940186,465.164520 680.363464,469.415344 682.878174,473.952698 
	C683.633545,475.569946 684.289734,476.904602 684.962585,478.230835 
	C692.604370,493.294373 700.248657,508.356567 707.989075,523.720947 
	C709.680847,527.034485 711.275879,530.046143 712.966797,533.404785 
	C719.152893,545.525146 725.243164,557.298584 731.427734,569.390137 
	C736.651428,579.232422 741.780762,588.756592 746.926636,598.624817 
	C747.914368,601.002869 748.885620,603.036865 750.085327,605.323914 
	C752.190552,608.114746 754.067322,610.652588 755.968262,613.531006 
	C759.188904,618.468750 762.361328,623.083191 765.609558,627.643677 
	C766.063416,628.280823 766.880493,628.665466 767.544983,629.145508 
	C782.778381,640.149719 797.081177,636.414429 806.327759,622.275085 
	C817.067993,605.851807 824.985901,587.582764 834.269775,569.793213 
	C838.886719,560.943359 843.362488,552.415222 848.304932,543.916260 
	C852.234131,544.180847 855.695557,544.433167 859.159424,544.646301 
	C862.201904,544.833496 865.396362,545.651978 868.264404,545.018433 
	C878.662048,542.721375 886.403564,535.790161 894.319214,529.223694 
	C896.679871,527.265442 899.293152,525.611572 901.633911,524.202026 
	C899.909180,527.124512 898.238220,529.606140 896.791443,532.212097 
	C891.630554,541.508301 886.325378,550.736023 881.555420,560.231140 
	C879.949585,563.427856 879.776611,567.344360 878.975525,570.961243 
	C879.002319,570.990601 879.061829,571.043213 879.101440,571.427002 
	C878.988464,574.130310 878.835876,576.449768 878.683228,578.769226 
z"/>
<path fill="#78F5A0" opacity="1.000000" stroke="none" 
	d="
M682.786682,473.666199 
	C680.363464,469.415344 677.940186,465.164520 675.516968,460.913666 
	C675.018188,461.184692 674.519470,461.455688 674.020691,461.726715 
	C674.278381,462.712189 674.400940,463.758575 674.813721,464.674133 
	C683.930481,484.892944 693.083191,505.095612 702.209045,525.310303 
	C702.613831,526.207031 702.830444,527.188599 703.044067,528.861145 
	C701.477844,531.257996 700.313843,533.717224 698.468445,534.442322 
	C692.918030,536.623108 687.031982,537.934937 681.416016,539.969666 
	C678.048828,541.189697 674.934631,543.113708 671.720886,544.749451 
	C670.279602,545.483032 668.873291,546.285278 667.451050,547.056396 
	C664.836487,542.213196 662.078430,537.441223 659.633545,532.513794 
	C651.434143,515.988770 643.346985,499.408020 635.215820,482.849121 
	C632.213257,476.734467 629.333557,470.554504 626.141174,464.540558 
	C624.872192,462.149811 625.588745,461.150085 627.536743,459.712921 
	C638.227173,451.825928 648.754700,443.696899 662.824890,441.789429 
	C660.415955,435.434113 658.233398,429.676056 656.050842,423.917999 
	C656.409851,423.758575 656.768860,423.599182 657.127869,423.439758 
	C657.717224,424.308624 658.445801,425.114319 658.873352,426.056641 
	C661.602478,432.072021 664.980347,432.464203 668.943665,427.063232 
	C671.695068,423.313812 674.199402,419.383331 676.940857,415.626129 
	C683.614502,406.479919 692.806335,400.312714 701.844055,394.114288 
	C705.945618,396.532013 704.963440,403.099854 710.766907,403.323853 
	C713.029785,407.263000 715.308594,411.063110 717.347351,414.987885 
	C719.411743,418.962036 721.238647,423.059540 723.073730,427.786987 
	C721.575256,429.809601 720.105896,431.085541 718.781616,432.497589 
	C713.107788,438.547607 707.966675,445.218170 701.674988,450.529541 
	C696.638855,454.780975 693.287354,459.706421 690.224548,465.309052 
	C688.481628,468.497314 685.313232,470.906311 682.786682,473.666199 
z"/>
<path fill="#35D489" opacity="1.000000" stroke="none" 
	d="
M667.581299,547.405457 
	C668.873291,546.285278 670.279602,545.483032 671.720886,544.749451 
	C674.934631,543.113708 678.048828,541.189697 681.416016,539.969666 
	C687.031982,537.934937 692.918030,536.623108 698.468445,534.442322 
	C700.313843,533.717224 701.477844,531.257996 703.074829,529.232910 
	C706.575073,535.510010 710.138977,542.058960 713.299438,548.797180 
	C724.724854,573.156799 735.959045,597.606079 747.375977,621.969666 
	C754.466797,637.101257 761.756958,652.139404 768.662720,667.665894 
	C763.705200,674.428528 759.600342,681.281555 754.201660,686.889099 
	C749.972290,691.282043 747.076660,695.422058 747.949768,701.613708 
	C748.400208,704.808167 746.944031,706.271484 743.759766,706.091248 
	C729.088501,678.150208 714.417175,650.209167 699.793945,621.525635 
	C699.035767,618.103455 696.913330,614.921448 697.703491,612.851135 
	C699.238525,608.829102 697.329407,606.165100 695.966614,603.113220 
	C693.815735,598.296448 691.713867,593.445129 689.277649,588.771973 
	C686.785522,583.991211 683.915833,579.407349 681.211426,574.737305 
	C676.711487,565.743042 672.211487,556.748779 667.581299,547.405457 
z"/>
<path fill="#046457" opacity="1.000000" stroke="none" 
	d="
M978.112793,370.111206 
	C976.256165,373.583984 974.399475,377.056793 971.950317,380.806183 
	C965.579407,386.531311 960.010681,392.230255 953.931641,397.319611 
	C951.019592,399.757599 947.286072,402.121674 943.668152,402.606995 
	C937.476257,403.437531 930.990417,403.408417 924.803040,402.520477 
	C919.809753,401.803894 916.092041,403.562714 914.235229,407.146606 
	C908.132690,418.924774 902.745850,431.073792 896.926758,443.391174 
	C895.113342,447.404297 893.457397,451.106598 891.568115,455.055359 
	C887.141968,463.365112 882.896790,471.401794 878.771362,479.499481 
	C874.792480,487.309601 870.937256,495.182648 866.671692,502.958496 
	C865.226257,501.152496 864.214417,499.360931 863.030396,497.691498 
	C860.879700,494.659302 859.141479,490.997559 856.278259,488.897919 
	C853.108398,486.573456 851.680481,483.833771 852.173401,480.521973 
	C852.873230,475.819183 854.515381,471.260559 855.682800,466.622162 
	C856.518738,463.300476 857.866699,459.953400 857.889648,456.610107 
	C857.960022,446.361969 859.615723,436.602875 863.399231,426.981476 
	C866.778687,418.387573 869.678162,409.466248 871.481384,400.428406 
	C873.468079,390.470856 876.846375,382.126160 886.059814,376.704681 
	C887.739380,375.716431 887.924377,372.188080 888.811768,369.487427 
	C889.465820,367.711670 890.107361,366.280792 891.197266,364.870789 
	C901.768860,363.970520 911.882996,362.444641 922.017639,362.293701 
	C932.739319,362.134064 943.480408,363.283173 954.389648,364.153015 
	C959.486206,375.378632 967.731689,377.222321 977.710083,369.720520 
	C977.844360,369.850739 978.112854,370.111206 978.112793,370.111206 
z"/>
<path fill="#09CEB3" opacity="1.000000" stroke="none" 
	d="
M777.044800,682.956360 
	C779.917847,679.479126 782.746338,675.963867 785.673462,672.532715 
	C791.270630,665.971802 796.628784,659.172974 802.616028,652.985657 
	C814.743530,640.453003 827.151794,628.188354 839.598938,615.970764 
	C844.031311,611.620178 848.955200,607.774231 853.570496,603.604675 
	C856.148010,601.276062 859.342957,599.506531 861.861938,602.292786 
	C863.400330,603.994385 862.881592,607.555847 863.142822,610.654907 
	C862.153259,613.152039 861.307556,615.276184 860.305420,617.731567 
	C860.149109,618.062805 860.227478,617.917297 860.227478,617.917297 
	C847.313965,644.607849 834.505676,671.350220 821.410583,697.951416 
	C818.263550,704.344238 814.164673,710.268616 810.030029,716.698853 
	C809.287109,717.453857 809.017578,717.918457 808.748108,718.382996 
	C806.628113,720.430969 804.508118,722.478943 801.763611,724.743286 
	C798.718567,726.467163 797.314819,725.623962 796.127319,723.178833 
	C793.597961,717.970520 790.839111,712.873657 788.147949,707.369080 
	C787.423157,705.350403 786.776672,703.669556 786.017212,702.041382 
	C783.045776,695.670715 780.038635,689.316589 777.044800,682.956360 
z"/>
<path fill="#09CEB3" opacity="1.000000" stroke="none" 
	d="
M867.027588,503.028015 
	C870.937256,495.182648 874.792480,487.309601 878.771362,479.499481 
	C882.896790,471.401794 887.141968,463.365112 891.960693,455.101166 
	C893.512695,454.610352 894.545532,454.494110 895.347168,454.001587 
	C900.412659,450.889526 903.693848,451.249084 906.457947,456.361938 
	C909.682983,462.327484 912.262817,468.555908 909.962524,475.789764 
	C908.215210,481.284912 910.330322,484.564880 915.416626,487.392181 
	C917.129089,488.344116 918.046082,490.727173 919.326660,492.456116 
	C919.044067,493.178436 918.761536,493.900757 918.061401,495.027832 
	C917.567139,495.802002 917.490540,496.171417 917.413879,496.540833 
	C917.413879,496.540833 917.372498,496.835602 917.035034,497.133301 
	C916.632996,497.816010 916.568420,498.200958 916.503845,498.585938 
	C915.522339,500.759460 914.540894,502.933014 913.078369,505.498749 
	C910.687256,509.797943 908.777161,513.704956 906.746338,517.539673 
	C906.625549,517.467468 906.479187,517.703735 906.479187,517.703735 
	C906.479187,517.703735 906.703064,517.871521 906.601318,518.327881 
	C906.289246,519.014343 906.079041,519.244446 905.624573,519.529724 
	C905.258972,519.893738 905.137512,520.202515 904.876221,520.758057 
	C903.754456,521.942627 902.772522,522.880432 901.790649,523.818237 
	C899.293152,525.611572 896.679871,527.265442 894.319214,529.223694 
	C886.403564,535.790161 878.662048,542.721375 868.264404,545.018433 
	C865.396362,545.651978 862.201904,544.833496 859.159424,544.646301 
	C855.695557,544.433167 852.234131,544.180847 848.369873,543.547363 
	C849.327759,539.802979 850.504333,536.367737 852.080994,533.127136 
	C856.981689,523.054443 862.034058,513.055542 867.027588,503.028015 
z"/>
<path fill="#35D489" opacity="1.000000" stroke="none" 
	d="
M682.878174,473.952698 
	C685.313232,470.906311 688.481628,468.497314 690.224548,465.309052 
	C693.287354,459.706421 696.638855,454.780975 701.674988,450.529541 
	C707.966675,445.218170 713.107788,438.547607 718.781616,432.497589 
	C720.105896,431.085541 721.575256,429.809601 723.139954,428.150146 
	C729.796753,441.199066 736.291443,454.568848 742.884766,468.306061 
	C742.983337,468.673492 742.958252,468.650116 742.958252,468.650116 
	C745.062500,473.103516 747.166748,477.556915 749.063782,482.628754 
	C744.180786,486.069916 738.741028,488.125671 734.982727,491.869415 
	C726.218018,500.600281 716.661926,508.786346 710.876892,520.128113 
	C710.227539,521.401367 708.903503,522.330444 707.892334,523.419128 
	C700.248657,508.356567 692.604370,493.294373 684.962585,478.230835 
	C684.289734,476.904602 683.633545,475.569946 682.878174,473.952698 
z"/>
<path fill="#07836D" opacity="1.000000" stroke="none" 
	d="
M731.333435,569.072021 
	C725.243164,557.298584 719.152893,545.525146 713.328369,533.346802 
	C716.323608,530.424255 719.651550,528.311096 721.675232,525.316528 
	C728.953430,514.546204 738.637146,506.442108 748.962036,498.856476 
	C751.101501,497.284576 752.300537,494.432648 753.932983,492.170654 
	C758.771362,501.890228 763.666016,511.582397 768.426208,521.340149 
	C771.101074,526.823425 773.553772,532.415039 776.127075,538.721436 
	C778.709961,546.302490 773.065247,553.149048 767.441101,556.128601 
	C760.739563,559.679077 753.791199,562.875000 746.685547,565.512939 
	C741.800964,567.326416 736.466736,567.928528 731.333435,569.072021 
z"/>
<path fill="#04A689" opacity="1.000000" stroke="none" 
	d="
M919.591187,492.236755 
	C918.046082,490.727173 917.129089,488.344116 915.416626,487.392181 
	C910.330322,484.564880 908.215210,481.284912 909.962524,475.789764 
	C912.262817,468.555908 909.682983,462.327484 906.457947,456.361938 
	C903.693848,451.249084 900.412659,450.889526 895.347168,454.001587 
	C894.545532,454.494110 893.512695,454.610352 892.194092,454.854736 
	C893.457397,451.106598 895.113342,447.404297 897.332886,443.362000 
	C900.269165,442.439880 903.158447,442.528839 904.929993,441.165436 
	C915.554810,432.988617 926.190857,424.784363 936.272278,415.959930 
	C941.981628,410.962524 948.819031,411.616486 955.273132,410.158173 
	C955.849792,410.027863 956.658386,410.924377 957.359253,411.344055 
	C944.858154,438.235168 932.356934,465.126312 919.591187,492.236755 
z"/>
<path fill="#04A689" opacity="1.000000" stroke="none" 
	d="
M776.889648,682.645630 
	C780.038635,689.316589 783.045776,695.670715 786.017212,702.041382 
	C786.776672,703.669556 787.423157,705.350403 787.797363,707.505432 
	C786.286011,709.892334 784.947632,711.703857 783.939575,713.683594 
	C780.852539,719.746704 779.028687,726.595703 773.034485,730.803589 
	C770.523804,730.054932 768.013062,729.306274 765.060059,728.087646 
	C764.246765,727.503296 763.875732,727.388733 763.504700,727.274231 
	C753.887695,723.396545 749.004456,715.024841 743.889587,706.420471 
	C746.944031,706.271484 748.400208,704.808167 747.949768,701.613708 
	C747.076660,695.422058 749.972290,691.282043 754.201660,686.889099 
	C759.600342,681.281555 763.705200,674.428528 768.712036,668.021606 
	C771.615784,672.732300 774.175171,677.533630 776.889648,682.645630 
z"/>
<path fill="#046457" opacity="1.000000" stroke="none" 
	d="
M731.427734,569.390137 
	C736.466736,567.928528 741.800964,567.326416 746.685547,565.512939 
	C753.791199,562.875000 760.739563,559.679077 767.441101,556.128601 
	C773.065247,553.149048 778.709961,546.302490 776.174438,539.076355 
	C777.942261,541.619019 779.626587,544.605896 781.450073,547.505310 
	C782.266296,548.803162 783.361511,549.925537 784.703552,551.479980 
	C782.371338,558.051086 779.588379,564.237610 776.978638,570.496338 
	C773.335571,579.233093 769.003845,587.475220 762.418518,594.470642 
	C757.982422,599.182983 752.787415,600.745422 746.910156,598.280823 
	C741.780762,588.756592 736.651428,579.232422 731.427734,569.390137 
z"/>
<path fill="#07836D" opacity="1.000000" stroke="none" 
	d="
M957.613770,411.114319 
	C956.658386,410.924377 955.849792,410.027863 955.273132,410.158173 
	C948.819031,411.616486 941.981628,410.962524 936.272278,415.959930 
	C926.190857,424.784363 915.554810,432.988617 904.929993,441.165436 
	C903.158447,442.528839 900.269165,442.439880 897.490234,443.051178 
	C902.745850,431.073792 908.132690,418.924774 914.235229,407.146606 
	C916.092041,403.562714 919.809753,401.803894 924.803040,402.520477 
	C930.990417,403.408417 937.476257,403.437531 943.668152,402.606995 
	C947.286072,402.121674 951.019592,399.757599 953.931641,397.319611 
	C960.010681,392.230255 965.579407,386.531311 971.704102,381.029297 
	C967.322998,390.945435 962.595581,400.915009 957.613770,411.114319 
z"/>
<path fill="#04A689" opacity="1.000000" stroke="none" 
	d="
M753.855347,491.808136 
	C752.300537,494.432648 751.101501,497.284576 748.962036,498.856476 
	C738.637146,506.442108 728.953430,514.546204 721.675232,525.316528 
	C719.651550,528.311096 716.323608,530.424255 713.232483,532.999817 
	C711.275879,530.046143 709.680847,527.034485 707.989075,523.720947 
	C708.903503,522.330444 710.227539,521.401367 710.876892,520.128113 
	C716.661926,508.786346 726.218018,500.600281 734.982727,491.869415 
	C738.741028,488.125671 744.180786,486.069916 749.134277,482.990479 
	C750.867371,485.637665 752.322571,488.541656 753.855347,491.808136 
z"/>
<path fill="#78F5A0" opacity="1.000000" stroke="none" 
	d="
M890.748901,364.849945 
	C890.107361,366.280792 889.465820,367.711670 888.543579,369.692627 
	C883.852600,378.016663 876.624695,378.484283 868.870483,377.366516 
	C867.554199,376.128876 866.282959,375.228577 865.011658,374.328308 
	C864.870605,373.857147 864.822144,373.329712 864.575073,372.922974 
	C857.950989,362.016602 860.268738,355.741455 872.921143,351.338318 
	C876.538208,351.294739 879.672791,351.599213 882.860352,352.249695 
	C883.526001,353.198059 884.138672,353.800415 884.867920,354.715027 
	C886.906006,358.301514 888.827454,361.575745 890.748901,364.849945 
z"/>
<path fill="#DAF39D" opacity="1.000000" stroke="none" 
	d="
M882.807373,351.903687 
	C879.672791,351.599213 876.538208,351.294739 873.447449,351.001953 
	C873.031982,351.013611 872.572754,351.013611 872.113525,351.013611 
	C872.314453,351.464111 872.515320,351.914612 872.716248,352.365082 
	C874.712891,351.228424 877.678345,350.585876 878.550598,348.875732 
	C884.721008,336.777039 890.508240,324.480896 896.257812,312.173035 
	C896.752991,311.112946 896.560669,309.194519 895.894775,308.212494 
	C889.413025,298.653259 891.126587,290.741333 901.455200,284.233856 
	C901.710022,283.902374 901.528137,283.989380 901.528137,283.989380 
	C903.832947,283.952698 906.137695,283.916046 908.912598,283.971313 
	C909.382629,284.063232 909.308533,284.076294 909.308533,284.076294 
	C909.936829,284.259796 910.565063,284.443268 911.545166,285.104309 
	C911.997314,285.810455 912.151367,285.994110 912.269470,286.476257 
	C909.718323,289.472412 907.352722,292.222748 904.775330,294.757782 
	C899.379150,300.065155 897.540100,306.062317 900.683228,313.527222 
	C895.238770,325.869598 889.872192,337.888702 884.241943,349.985321 
	C883.587952,350.676483 883.197632,351.290100 882.807373,351.903687 
z"/>
<path fill="#35D489" opacity="1.000000" stroke="none" 
	d="
M891.197266,364.870789 
	C888.827454,361.575745 886.906006,358.301514 884.917358,354.618591 
	C884.850220,354.209839 884.968384,354.028717 885.281372,354.173950 
	C890.036560,358.276367 894.744690,361.290161 901.113403,359.091095 
	C902.015991,358.779449 903.112854,358.858093 904.093750,358.975006 
	C908.616211,359.513885 911.956482,357.588287 913.738953,353.636475 
	C915.421753,349.905701 913.080200,340.763641 910.872314,338.477570 
	C910.010376,337.585175 909.495483,335.050018 910.108582,334.256012 
	C913.680664,329.629639 913.101746,318.584747 909.080994,313.970459 
	C911.605408,313.213013 913.757324,312.559631 915.909302,311.906189 
	C915.085449,313.651581 913.456116,315.456696 913.580444,317.131714 
	C914.056824,323.551697 915.096313,329.929901 915.813843,337.129944 
	C914.143921,343.767792 913.358948,349.573090 916.290161,355.252167 
	C922.213867,359.661285 929.302917,357.982178 935.877930,358.968781 
	C937.830505,359.261810 939.830566,359.238495 942.553406,359.587616 
	C946.854309,359.830933 950.410583,359.846802 953.999573,360.261658 
	C954.092468,361.727295 954.152710,362.793976 954.213013,363.860626 
	C943.480408,363.283173 932.739319,362.134064 922.017639,362.293701 
	C911.882996,362.444641 901.768860,363.970520 891.197266,364.870789 
z"/>
<path fill="#78F5A0" opacity="1.000000" stroke="none" 
	d="
M916.217834,311.824249 
	C913.757324,312.559631 911.605408,313.213013 908.696167,314.008301 
	C905.546326,313.834778 903.153687,313.519348 900.761108,313.203888 
	C897.540100,306.062317 899.379150,300.065155 904.775330,294.757782 
	C907.352722,292.222748 909.718323,289.472412 912.599365,286.472229 
	C913.997070,286.632874 915.356934,286.888489 915.888245,287.692017 
	C918.334534,291.391754 920.549744,295.244324 922.791748,299.422455 
	C921.856384,302.560211 920.977234,305.317535 920.098022,308.074890 
	C920.098083,308.074890 919.866821,308.465485 919.522705,308.734894 
	C918.991150,309.427704 918.803711,309.851105 918.616333,310.274506 
	C917.919678,310.763794 917.223022,311.253021 916.217834,311.824249 
z"/>
<path fill="#046457" opacity="1.000000" stroke="none" 
	d="
M953.848145,356.864960 
	C957.721313,351.147766 954.845032,347.221497 950.576721,343.338806 
	C946.442383,339.577942 942.668091,335.421234 938.735718,331.438354 
	C939.128235,330.994904 939.520813,330.551483 939.913330,330.108032 
	C942.229492,332.116852 944.659546,334.010468 946.835266,336.161346 
	C950.140869,339.429138 953.047119,343.140717 956.584900,346.114227 
	C957.983948,347.290161 960.623596,347.294525 962.694092,347.278381 
	C964.627869,347.263275 966.616821,345.979614 968.474976,346.190765 
	C973.604492,346.773773 977.304016,344.788147 980.913330,341.323639 
	C984.184265,338.183929 985.778931,334.970215 985.357300,330.378174 
	C984.953369,325.977722 987.330688,322.249939 991.321472,321.036652 
	C993.852234,320.267242 997.674255,321.007599 999.913879,322.538544 
	C1006.272400,326.885254 1005.127197,334.158417 997.944702,336.198761 
	C985.897156,339.621185 985.474060,348.899994 983.798828,358.077209 
	C983.006775,362.416107 983.384583,367.190735 978.436890,369.989075 
	C978.112854,370.111206 977.844360,369.850739 977.854370,369.392517 
	C984.751404,362.110596 980.959534,348.545135 968.865784,347.827545 
	C961.981445,347.419037 956.793457,350.455261 954.371948,357.283783 
	C954.196899,357.144714 953.848145,356.864960 953.848145,356.864960 
M993.572754,335.338593 
	C994.387573,335.243835 995.262207,335.307739 996.006897,335.026978 
	C999.274353,333.795044 1001.814941,331.355316 1000.486389,327.961639 
	C999.598022,325.692352 996.446533,322.648590 994.594727,322.832916 
	C992.224426,323.068878 989.064941,325.810333 988.201233,328.183777 
	C987.044800,331.361603 988.492554,334.721802 993.572754,335.338593 
z"/>
<path fill="#09CEB3" opacity="1.000000" stroke="none" 
	d="
M746.926636,598.624817 
	C752.787415,600.745422 757.982422,599.182983 762.418518,594.470642 
	C769.003845,587.475220 773.335571,579.233093 776.978638,570.496338 
	C779.588379,564.237610 782.371338,558.051086 785.085938,551.470093 
	C789.309265,541.915161 793.523743,532.722534 798.291626,523.383301 
	C799.323669,524.283447 799.802307,525.330139 800.208130,526.727112 
	C791.261536,546.374084 782.760742,565.855347 773.343872,584.883240 
	C769.149963,593.357422 762.291809,599.761353 752.092712,601.313721 
	C751.177917,601.452942 750.594238,603.766907 749.856812,605.070923 
	C748.885620,603.036865 747.914368,601.002869 746.926636,598.624817 
z"/>
<path fill="#DAF39D" opacity="1.000000" stroke="none" 
	d="
M864.765259,374.231934 
	C866.282959,375.228577 867.554199,376.128876 868.761780,377.729675 
	C863.083313,390.332275 857.496216,402.247467 851.844299,414.131805 
	C848.019348,422.174683 844.103149,430.174164 839.935425,438.200348 
	C838.512024,438.464905 837.380981,438.722198 836.249878,438.979492 
	C844.979919,419.815735 853.744629,400.667664 862.392029,381.466675 
	C863.368408,379.298706 863.687988,376.834045 864.289429,374.501099 
	C864.317139,374.393555 864.120117,374.228088 864.027771,374.089600 
	C864.191467,374.104919 864.355164,374.120239 864.765259,374.231934 
z"/>
<path fill="#78F5A0" opacity="1.000000" stroke="none" 
	d="
M905.868774,519.474548 
	C906.079041,519.244446 906.289246,519.014343 906.651245,518.310791 
	C906.802979,517.837341 906.867065,517.611938 906.867065,517.611938 
	C908.777161,513.704956 910.687256,509.797943 912.788574,505.798767 
	C905.489014,521.979553 898.038879,538.271484 890.490173,554.517456 
	C886.790405,562.479797 882.907654,570.357056 878.895508,578.520996 
	C878.835876,576.449768 878.988464,574.130310 879.237427,571.372314 
	C879.205444,570.933105 879.077087,570.932495 878.948730,570.931885 
	C879.776611,567.344360 879.949585,563.427856 881.555420,560.231140 
	C886.325378,550.736023 891.630554,541.508301 896.791443,532.212097 
	C898.238220,529.606140 899.909180,527.124512 901.633911,524.202026 
	C902.772522,522.880432 903.754456,521.942627 905.070312,520.626953 
	C905.655396,520.048584 905.810242,519.790405 905.868774,519.474548 
z"/>
<path fill="#046457" opacity="1.000000" stroke="none" 
	d="
M991.221497,258.933990 
	C995.191223,258.984802 999.167725,259.200073 1003.128662,259.036804 
	C1006.598755,258.893829 1009.206116,257.456329 1011.078369,254.075867 
	C1013.522766,249.662445 1018.680237,248.152832 1022.632324,249.910080 
	C1027.426514,252.041763 1029.708252,256.380219 1028.600586,261.257629 
	C1027.773438,264.899780 1023.433960,267.991486 1018.469299,267.678162 
	C1012.073364,267.274567 1005.709229,265.668152 999.340027,265.716309 
	C991.479675,265.775726 983.359070,265.765472 976.399902,270.624512 
	C976.024963,270.886353 975.247925,270.572388 974.704102,270.105042 
	C978.216736,268.016449 981.683350,266.349304 985.525208,264.750854 
	C991.580261,264.346558 993.273315,262.473907 991.221497,258.933990 
M1022.367676,252.897934 
	C1020.925293,252.619324 1019.455078,252.008102 1018.045776,252.125870 
	C1014.165466,252.450195 1011.614258,255.165039 1011.724670,258.610443 
	C1011.794128,260.779724 1014.082703,263.564392 1016.140381,264.824280 
	C1019.312439,266.766602 1022.745728,265.623932 1024.866577,262.503876 
	C1027.236206,259.017914 1026.119019,255.884949 1022.367676,252.897934 
z"/>
<path fill="#07836D" opacity="1.000000" stroke="none" 
	d="
M773.364258,731.045288 
	C779.028687,726.595703 780.852539,719.746704 783.939575,713.683594 
	C784.947632,711.703857 786.286011,709.892334 787.823792,707.867493 
	C790.839111,712.873657 793.597961,717.970520 796.127319,723.178833 
	C797.314819,725.623962 798.718567,726.467163 801.488403,724.934448 
	C798.014038,726.815002 794.367065,729.592407 790.323425,730.411377 
	C784.942017,731.501465 779.251709,731.066650 773.364258,731.045288 
z"/>
<path fill="#35D489" opacity="1.000000" stroke="none" 
	d="
M922.847900,299.042053 
	C920.549744,295.244324 918.334534,291.391754 915.888245,287.692017 
	C915.356934,286.888489 913.997070,286.632874 912.688965,286.128845 
	C912.151367,285.994110 911.997314,285.810455 911.930908,285.410828 
	C915.044922,282.878143 918.033447,280.380005 921.249023,278.219971 
	C922.594421,277.316132 924.482117,276.549866 926.020325,276.709991 
	C936.964722,277.849426 947.969727,280.085205 958.733215,276.249908 
	C962.546387,274.891205 965.848022,272.096832 969.942261,270.102600 
	C970.811401,270.507202 971.121521,270.767029 971.431580,271.026855 
	C966.508118,274.844269 961.615601,278.703033 956.624512,282.429840 
	C955.955872,282.929108 954.324158,283.227936 953.925781,282.830444 
	C950.164551,279.077667 945.457642,280.861603 941.155396,280.467865 
	C937.024597,280.089844 932.853394,279.580353 928.738281,279.811462 
	C926.120972,279.958435 923.347473,280.958008 921.049988,282.280487 
	C917.905823,284.090332 917.777283,286.695679 919.922363,289.833466 
	C921.647400,292.356689 922.626038,295.390259 923.609558,298.589996 
	C923.283264,298.982635 922.847839,299.042053 922.847900,299.042053 
z"/>
<path fill="#35D489" opacity="1.000000" stroke="none" 
	d="
M800.281006,526.376831 
	C799.802307,525.330139 799.323669,524.283447 798.507690,523.114746 
	C800.988281,516.317078 803.696899,509.592590 806.649536,502.977051 
	C811.096313,493.013611 815.713684,483.126251 820.778076,473.265411 
	C822.181885,473.530609 823.066101,473.736908 823.937195,474.312500 
	C818.001038,488.323334 812.148376,501.996155 806.109009,515.586060 
	C804.453735,519.310669 802.239014,522.786743 800.281006,526.376831 
z"/>
<path fill="#78F5A0" opacity="1.000000" stroke="none" 
	d="
M681.141174,575.166016 
	C683.915833,579.407349 686.785522,583.991211 689.277649,588.771973 
	C691.713867,593.445129 693.815735,598.296448 695.966614,603.113220 
	C697.329407,606.165100 699.238525,608.829102 697.703491,612.851135 
	C696.913330,614.921448 699.035767,618.103455 699.895508,621.182434 
	C693.330872,608.589966 686.712830,595.598145 680.056580,582.222534 
	C680.369263,579.757507 680.720093,577.676086 681.141174,575.166016 
z"/>
<path fill="#78F5A0" opacity="1.000000" stroke="none" 
	d="
M823.950378,473.943207 
	C823.066101,473.736908 822.181885,473.530609 821.050903,473.074768 
	C825.775574,461.736694 830.747009,450.648071 835.984131,439.269470 
	C837.380981,438.722198 838.512024,438.464905 839.954590,438.574280 
	C834.827515,450.608368 829.388916,462.275787 823.950378,473.943207 
z"/>
<path fill="#07836D" opacity="1.000000" stroke="none" 
	d="
M922.791687,299.422485 
	C922.847839,299.042053 923.283264,298.982635 923.502319,298.977142 
	C923.439392,304.796417 926.113708,307.618195 934.402405,309.591766 
	C937.359924,310.295959 940.486816,310.288849 943.447632,310.924622 
	C941.981628,312.291718 940.604370,313.340668 939.227112,314.389587 
	C935.588806,312.881134 931.992188,311.259033 928.297363,309.904846 
	C925.906250,309.028534 923.371521,308.544006 920.499634,307.979370 
	C920.977234,305.317535 921.856384,302.560211 922.791687,299.422485 
z"/>
<path fill="#35D489" opacity="1.000000" stroke="none" 
	d="
M991.179199,258.901428 
	C993.273315,262.473907 991.580261,264.346558 985.420898,264.457672 
	C984.614929,263.113434 984.288513,262.131104 983.962097,261.148804 
	C985.422607,260.077515 986.883118,259.006195 988.880981,258.029175 
	C989.418396,258.123474 989.805298,258.073120 989.805298,258.073120 
	C989.805298,258.073120 989.896179,258.113251 990.054077,258.329590 
	C990.453369,258.759735 990.733887,258.845123 991.053528,258.802063 
	C991.053528,258.802063 991.136902,258.868835 991.179199,258.901428 
z"/>
<path fill="#07836D" opacity="1.000000" stroke="none" 
	d="
M983.727783,261.385376 
	C984.288513,262.131104 984.614929,263.113434 985.045654,264.388947 
	C981.683350,266.349304 978.216736,268.016449 974.563965,269.871979 
	C973.658447,270.401459 972.939026,270.742554 971.825623,271.055267 
	C971.121521,270.767029 970.811401,270.507202 970.308533,270.016479 
	C974.574951,267.064362 979.034180,264.343140 983.727783,261.385376 
z"/>
<path fill="#046457" opacity="1.000000" stroke="none" 
	d="
M916.372437,354.825653 
	C913.358948,349.573090 914.143921,343.767792 915.887817,337.577942 
	C916.200623,342.946167 916.327637,348.672638 916.372437,354.825653 
z"/>
<path fill="#35D489" opacity="1.000000" stroke="none" 
	d="
M939.309448,314.528320 
	C940.604370,313.340668 941.981628,312.291718 943.612427,311.153076 
	C944.139221,311.255859 944.412537,311.448425 944.850708,312.066162 
	C945.114746,312.800323 945.317505,313.008484 945.623840,313.115723 
	C945.623840,313.115723 945.727539,313.219788 945.662598,313.464386 
	C945.603638,314.078644 945.609558,314.448303 945.615479,314.817963 
	C945.516357,314.969086 945.417236,315.120178 944.827515,315.514343 
	C942.771240,315.462708 941.205688,315.167969 939.640076,314.873260 
	C939.640076,314.873260 939.391846,314.667023 939.309448,314.528320 
z"/>
<path fill="#046457" opacity="1.000000" stroke="none" 
	d="
M953.966919,359.862671 
	C950.410583,359.846802 946.854309,359.830933 942.990051,359.654297 
	C946.154358,358.738129 949.626526,357.982788 953.473450,357.046204 
	C953.848145,356.864960 954.196899,357.144714 954.328308,357.595276 
	C954.295471,358.651489 954.131226,359.257080 953.966919,359.862671 
z"/>
<path fill="#07836D" opacity="1.000000" stroke="none" 
	d="
M939.659485,315.177002 
	C941.205688,315.167969 942.771240,315.462708 944.642395,315.712311 
	C943.384521,318.102264 942.659302,318.076599 939.659485,315.177002 
z"/>
<path fill="#07836D" opacity="1.000000" stroke="none" 
	d="
M808.999634,718.421936 
	C809.017578,717.918457 809.287109,717.453857 809.767273,716.962036 
	C809.735718,717.443481 809.493408,717.952148 808.999634,718.421936 
z"/>
<path fill="#07836D" opacity="1.000000" stroke="none" 
	d="
M945.798096,314.937775 
	C945.609558,314.448303 945.603638,314.078644 945.672852,313.537109 
	C945.825500,313.929382 945.903076,314.493469 945.798096,314.937775 
z"/>
<path fill="#07836D" opacity="1.000000" stroke="none" 
	d="
M918.873779,310.257874 
	C918.803711,309.851105 918.991150,309.427704 919.403564,308.928070 
	C919.462769,309.314972 919.296997,309.778137 918.873779,310.257874 
z"/>
<path fill="#35D489" opacity="1.000000" stroke="none" 
	d="
M901.578979,283.948730 
	C901.528137,283.989380 901.710022,283.902374 901.669189,283.923340 
	C901.628357,283.944305 901.629822,283.908081 901.578979,283.948730 
z"/>
<path fill="#04A689" opacity="1.000000" stroke="none" 
	d="
M917.639526,496.358398 
	C917.490540,496.171417 917.567139,495.802002 917.870483,495.250061 
	C918.019897,495.437042 917.942566,495.806519 917.639526,496.358398 
z"/>
<path fill="#35D489" opacity="1.000000" stroke="none" 
	d="
M909.386108,284.058960 
	C909.308533,284.076294 909.382629,284.063232 909.395569,284.079712 
	C909.408508,284.096161 909.463684,284.041595 909.386108,284.058960 
z"/>
<path fill="#046457" opacity="1.000000" stroke="none" 
	d="
M990.946045,258.596924 
	C990.733887,258.845123 990.453369,258.759735 990.098145,258.352417 
	C990.316040,258.064758 990.600708,258.142395 990.946045,258.596924 
z"/>
<path fill="#04A689" opacity="1.000000" stroke="none" 
	d="
M743.041382,468.683746 
	C742.958252,468.650116 742.983337,468.673492 742.978882,468.692444 
	C742.974365,468.711426 743.124573,468.717377 743.041382,468.683746 
z"/>
<path fill="#046457" opacity="1.000000" stroke="none" 
	d="
M989.779785,257.934479 
	C989.805298,258.073120 989.418396,258.123474 989.250122,258.027649 
	C989.244385,257.636536 989.468445,257.591217 989.779785,257.934479 
z"/>
<path fill="#0BE8E3" opacity="1.000000" stroke="none" 
	d="
M860.300659,618.015137 
	C860.227478,617.917297 860.149109,618.062805 860.111206,618.072388 
	C860.073303,618.082031 860.373779,618.112976 860.300659,618.015137 
z"/>
<path fill="#07836D" opacity="1.000000" stroke="none" 
	d="
M945.649231,312.875793 
	C945.317505,313.008484 945.114746,312.800323 945.002441,312.267212 
	C945.361877,312.074158 945.590332,312.271759 945.649231,312.875793 
z"/>
<path fill="#07836D" opacity="1.000000" stroke="none" 
	d="
M763.679993,727.511963 
	C763.875732,727.388733 764.246765,727.503296 764.785522,727.863586 
	C764.587280,727.989502 764.221313,727.869629 763.679993,727.511963 
z"/>
<path fill="#04A689" opacity="1.000000" stroke="none" 
	d="
M916.719604,498.383514 
	C916.568420,498.200958 916.632996,497.816010 916.927734,497.236450 
	C917.083679,497.421631 917.009521,497.801361 916.719604,498.383514 
z"/>
<path fill="#07836D" opacity="1.000000" stroke="none" 
	d="
M823.937195,474.312500 
	C829.388916,462.275787 834.827515,450.608368 840.246948,438.567017 
	C844.103149,430.174164 848.019348,422.174683 851.844299,414.131805 
	C857.496216,402.247467 863.083313,390.332275 868.806763,378.067047 
	C876.624695,378.484283 883.852600,378.016663 888.531128,370.037506 
	C887.924377,372.188080 887.739380,375.716431 886.059814,376.704681 
	C876.846375,382.126160 873.468079,390.470856 871.481384,400.428406 
	C869.678162,409.466248 866.778687,418.387573 863.399231,426.981476 
	C859.615723,436.602875 857.960022,446.361969 857.889648,456.610107 
	C857.866699,459.953400 856.518738,463.300476 855.682800,466.622162 
	C854.515381,471.260559 852.873230,475.819183 852.173401,480.521973 
	C851.680481,483.833771 853.108398,486.573456 856.278259,488.897919 
	C859.141479,490.997559 860.879700,494.659302 863.030396,497.691498 
	C864.214417,499.360931 865.226257,501.152496 866.671692,502.958496 
	C862.034058,513.055542 856.981689,523.054443 852.080994,533.127136 
	C850.504333,536.367737 849.327759,539.802979 847.903198,543.518127 
	C843.362488,552.415222 838.886719,560.943359 833.884949,569.753235 
	C831.924561,569.277771 830.506897,568.486389 829.052246,567.770264 
	C825.456421,565.999878 822.231262,564.976562 818.751343,568.672241 
	C815.545471,572.076843 811.739868,575.107422 807.725403,577.513672 
	C802.193726,580.829163 796.009521,583.060669 790.500671,586.407959 
	C786.468811,588.857788 782.901367,592.172058 779.431580,595.425903 
	C772.339600,602.076660 768.340942,612.765808 756.303040,612.857971 
	C756.182495,612.858948 756.063721,613.074890 755.944092,613.190491 
	C754.067322,610.652588 752.190552,608.114746 750.085327,605.323914 
	C750.594238,603.766907 751.177917,601.452942 752.092712,601.313721 
	C762.291809,599.761353 769.149963,593.357422 773.343872,584.883240 
	C782.760742,565.855347 791.261536,546.374084 800.208130,526.727112 
	C802.239014,522.786743 804.453735,519.310669 806.109009,515.586060 
	C812.148376,501.996155 818.001038,488.323334 823.937195,474.312500 
z"/>
<path fill="#04A689" opacity="1.000000" stroke="none" 
	d="
M755.968262,613.531006 
	C756.063721,613.074890 756.182495,612.858948 756.303040,612.857971 
	C768.340942,612.765808 772.339600,602.076660 779.431580,595.425903 
	C782.901367,592.172058 786.468811,588.857788 790.500671,586.407959 
	C796.009521,583.060669 802.193726,580.829163 807.725403,577.513672 
	C811.739868,575.107422 815.545471,572.076843 818.751343,568.672241 
	C822.231262,564.976562 825.456421,565.999878 829.052246,567.770264 
	C830.506897,568.486389 831.924561,569.277771 833.743896,570.074890 
	C824.985901,587.582764 817.067993,605.851807 806.327759,622.275085 
	C797.081177,636.414429 782.778381,640.149719 767.544983,629.145508 
	C766.880493,628.665466 766.063416,628.280823 765.609558,627.643677 
	C762.361328,623.083191 759.188904,618.468750 755.968262,613.531006 
z"/>
<path fill="#78F5A0" opacity="1.000000" stroke="none" 
	d="
M953.999634,360.261658 
	C954.131226,359.257080 954.295471,358.651489 954.503296,357.734375 
	C956.793457,350.455261 961.981445,347.419037 968.865784,347.827545 
	C980.959534,348.545135 984.751404,362.110596 977.720093,369.262268 
	C967.731689,377.222321 959.486206,375.378632 954.389648,364.153015 
	C954.152710,362.793976 954.092468,361.727295 953.999634,360.261658 
z"/>
<path fill="#0BE8E3" opacity="1.000000" stroke="none" 
	d="
M906.746338,517.539673 
	C906.867065,517.611938 906.802979,517.837341 906.753052,517.854431 
	C906.703064,517.871521 906.479187,517.703735 906.479187,517.703735 
	C906.479187,517.703735 906.625549,517.467468 906.746338,517.539673 
z"/>
<path fill="#0BE8E3" opacity="1.000000" stroke="none" 
	d="
M905.624573,519.529724 
	C905.810242,519.790405 905.655396,520.048584 905.210144,520.380249 
	C905.137512,520.202515 905.258972,519.893738 905.624573,519.529724 
z"/>
<path fill="#35D489" opacity="1.000000" stroke="none" 
	d="
M882.860352,352.249695 
	C883.197632,351.290100 883.587952,350.676483 884.244263,350.403076 
	C884.662964,351.838409 884.815674,352.933563 884.968384,354.028717 
	C884.968384,354.028717 884.850220,354.209839 884.800781,354.306305 
	C884.138672,353.800415 883.526001,353.198059 882.860352,352.249695 
z"/>
<path fill="#000000" opacity="1.000000" stroke="none" 
	d="
M885.281372,354.173950 
	C884.815674,352.933563 884.662964,351.838409 884.507935,350.325500 
	C889.872192,337.888702 895.238770,325.869598 900.683228,313.527222 
	C903.153687,313.519348 905.546326,313.834778 908.323730,314.112366 
	C913.101746,318.584747 913.680664,329.629639 910.108582,334.256012 
	C909.495483,335.050018 910.010376,337.585175 910.872314,338.477570 
	C913.080200,340.763641 915.421753,349.905701 913.738953,353.636475 
	C911.956482,357.588287 908.616211,359.513885 904.093750,358.975006 
	C903.112854,358.858093 902.015991,358.779449 901.113403,359.091095 
	C894.744690,361.290161 890.036560,358.276367 885.281372,354.173950 
z"/>
<path fill="#DAF39D" opacity="1.000000" stroke="none" 
	d="
M993.207581,335.294373 
	C988.492554,334.721802 987.044800,331.361603 988.201233,328.183777 
	C989.064941,325.810333 992.224426,323.068878 994.594727,322.832916 
	C996.446533,322.648590 999.598022,325.692352 1000.486389,327.961639 
	C1001.814941,331.355316 999.274353,333.795044 996.006897,335.026978 
	C995.262207,335.307739 994.387573,335.243835 993.207581,335.294373 
z"/>
<path fill="#0BE8E3" opacity="1.000000" stroke="none" 
	d="
M878.975586,570.961243 
	C879.077087,570.932495 879.205444,570.933105 879.197754,570.988464 
	C879.061829,571.043213 879.002319,570.990601 878.975586,570.961243 
z"/>
<path fill="#DAF39D" opacity="1.000000" stroke="none" 
	d="
M1022.700562,253.104248 
	C1026.119019,255.884949 1027.236206,259.017914 1024.866577,262.503876 
	C1022.745728,265.623932 1019.312439,266.766602 1016.140381,264.824280 
	C1014.082703,263.564392 1011.794128,260.779724 1011.724670,258.610443 
	C1011.614258,255.165039 1014.165466,252.450195 1018.045776,252.125870 
	C1019.455078,252.008102 1020.925293,252.619324 1022.700562,253.104248 
z"/>
</svg>